adventprofmm-Thin.ufo
<glyph name="exclam" format="1">
  <advance width="117"/>
  <unicode hex="0021"/>
  <outline>
    <contour>
      <point x="42" y="690" type="line"/>
      <point x="42" y="699"/>
      <point x="53" y="708"/>
      <point x="60" y="708" type="qcurve" smooth="yes"/>
      <point x="74" y="708"/>
      <point x="74" y="690" type="qcurve"/>
      <point x="66" y="120" type="line"/>
      <point x="51" y="120" type="line"/>
    </contour>
    <contour>
      <point x="75" y="18" type="qcurve" smooth="yes"/>
      <point x="75" y="11"/>
      <point x="66" y="0"/>
      <point x="59" y="0" type="qcurve" smooth="yes"/>
      <point x="52" y="0"/>
      <point x="41" y="11"/>
      <point x="41" y="18" type="qcurve" smooth="yes"/>
      <point x="41" y="24"/>
      <point x="52" y="34"/>
      <point x="59" y="34" type="qcurve" smooth="yes"/>
      <point x="66" y="34"/>
      <point x="75" y="24"/>
    </contour>
  </outline>
</glyph>
<glyph name="quotedbl" format="1">
  <advance width="222"/>
  <unicode hex="0022"/>
  <outline>
    <contour>
      <point x="163" y="721" type="line"/>
      <point x="163" y="729"/>
      <point x="172" y="736"/>
      <point x="183" y="736"/>
      <point x="192" y="729"/>
      <point x="192" y="721" type="qcurve"/>
      <point x="185" y="587" type="line"/>
      <point x="168" y="587" type="line"/>
    </contour>
    <contour>
      <point x="28" y="721" type="line"/>
      <point x="28" y="729"/>
      <point x="36" y="736"/>
      <point x="48" y="736"/>
      <point x="56" y="729"/>
      <point x="56" y="721" type="qcurve"/>
      <point x="50" y="587" type="line"/>
      <point x="33" y="587" type="line"/>
    </contour>
  </outline>
</glyph>
<glyph name="percent" format="1">
  <advance width="707"/>
  <unicode hex="0025"/>
  <outline>
    <contour>
      <point x="68" y="0" type="line"/>
      <point x="605" y="698" type="line"/>
      <point x="631" y="698" type="line"/>
      <point x="94" y="0" type="line"/>
    </contour>
    <contour>
      <point x="173" y="712" type="qcurve" smooth="yes"/>
      <point x="213" y="712"/>
      <point x="279" y="673"/>
      <point x="318" y="607"/>
      <point x="318" y="566" type="qcurve" smooth="yes"/>
      <point x="318" y="526"/>
      <point x="279" y="460"/>
      <point x="213" y="421"/>
      <point x="173" y="421" type="qcurve" smooth="yes"/>
      <point x="133" y="421"/>
      <point x="66" y="460"/>
      <point x="27" y="526"/>
      <point x="27" y="566" type="qcurve" smooth="yes"/>
      <point x="27" y="607"/>
      <point x="66" y="673"/>
      <point x="133" y="712"/>
    </contour>
    <contour>
      <point x="173" y="692" type="qcurve" smooth="yes"/>
      <point x="138" y="692"/>
      <point x="81" y="658"/>
      <point x="47" y="601"/>
      <point x="47" y="566" type="qcurve" smooth="yes"/>
      <point x="47" y="532"/>
      <point x="81" y="475"/>
      <point x="138" y="441"/>
      <point x="173" y="441" type="qcurve" smooth="yes"/>
      <point x="208" y="441"/>
      <point x="264" y="475"/>
      <point x="298" y="532"/>
      <point x="298" y="566" type="qcurve" smooth="yes"/>
      <point x="298" y="601"/>
      <point x="264" y="658"/>
      <point x="208" y="692"/>
    </contour>
    <contour>
      <point x="532" y="276" type="qcurve" smooth="yes"/>
      <point x="573" y="276"/>
      <point x="638" y="237"/>
      <point x="677" y="171"/>
      <point x="677" y="131" type="qcurve" smooth="yes"/>
      <point x="677" y="91"/>
      <point x="638" y="25"/>
      <point x="573" y="-14"/>
      <point x="532" y="-14" type="qcurve" smooth="yes"/>
      <point x="493" y="-14"/>
      <point x="427" y="25"/>
      <point x="388" y="91"/>
      <point x="388" y="131" type="qcurve" smooth="yes"/>
      <point x="388" y="171"/>
      <point x="427" y="237"/>
      <point x="493" y="276"/>
    </contour>
    <contour>
      <point x="532" y="256" type="qcurve" smooth="yes"/>
      <point x="498" y="256"/>
      <point x="442" y="222"/>
      <point x="408" y="166"/>
      <point x="408" y="131" type="qcurve" smooth="yes"/>
      <point x="408" y="97"/>
      <point x="442" y="40"/>
      <point x="498" y="7"/>
      <point x="532" y="7" type="qcurve" smooth="yes"/>
      <point x="567" y="7"/>
      <point x="624" y="40"/>
      <point x="658" y="97"/>
      <point x="658" y="131" type="qcurve" smooth="yes"/>
      <point x="658" y="166"/>
      <point x="624" y="222"/>
      <point x="567" y="256"/>
    </contour>
  </outline>
</glyph>
<glyph name="ampersand" format="1">
  <advance width="527"/>
  <unicode hex="0026"/>
  <outline>
    <contour>
      <point x="392" y="681" type="line"/>
      <point x="237" y="681" type="line" smooth="yes"/>
      <point x="198" y="681"/>
      <point x="141" y="648"/>
      <point x="113" y="591"/>
      <point x="114" y="554" type="qcurve"/>
      <point x="114" y="518"/>
      <point x="147" y="462"/>
      <point x="199" y="423"/>
      <point x="253" y="403"/>
      <point x="274" y="403" type="qcurve" smooth="yes"/>
      <point x="381" y="403" type="line"/>
      <point x="381" y="505" type="line"/>
      <point x="397" y="505" type="line"/>
      <point x="397" y="403" type="line"/>
      <point x="496" y="403" type="line"/>
      <point x="487" y="382" type="line"/>
      <point x="397" y="382" type="line"/>
      <point x="397" y="136" type="line" smooth="yes"/>
      <point x="397" y="81"/>
      <point x="442" y="26"/>
      <point x="491" y="9" type="qcurve"/>
      <point x="486" y="-9" type="line"/>
      <point x="437" y="5"/>
      <point x="387" y="61"/>
      <point x="381" y="105" type="qcurve"/>
      <point x="369" y="69"/>
      <point x="318" y="22"/>
      <point x="254" y="-2"/>
      <point x="223" y="-4" type="qcurve" smooth="yes"/>
      <point x="196" y="-6"/>
      <point x="129" y="2"/>
      <point x="68" y="34"/>
      <point x="29" y="102"/>
      <point x="29" y="161" type="qcurve" smooth="yes"/>
      <point x="29" y="254" type="line" smooth="yes"/>
      <point x="29" y="278"/>
      <point x="40" y="330"/>
      <point x="71" y="375"/>
      <point x="132" y="403"/>
      <point x="183" y="403" type="qcurve" smooth="yes"/>
      <point x="201" y="403" type="line"/>
      <point x="165" y="420"/>
      <point x="117" y="468"/>
      <point x="92" y="525"/>
      <point x="91" y="553" type="qcurve" smooth="yes"/>
      <point x="90" y="596"/>
      <point x="122" y="663"/>
      <point x="187" y="702"/>
      <point x="233" y="702" type="qcurve" smooth="yes"/>
      <point x="402" y="702" type="line"/>
    </contour>
    <contour>
      <point x="381" y="382" type="line"/>
      <point x="181" y="382" type="line" smooth="yes"/>
      <point x="130" y="382"/>
      <point x="72" y="348"/>
      <point x="48" y="289"/>
      <point x="48" y="251" type="qcurve" smooth="yes"/>
      <point x="48" y="159" type="line" smooth="yes"/>
      <point x="48" y="75"/>
      <point x="144" y="7"/>
      <point x="223" y="13" type="qcurve" smooth="yes"/>
      <point x="271" y="17"/>
      <point x="342" y="62"/>
      <point x="381" y="132"/>
      <point x="381" y="173" type="qcurve" smooth="yes"/>
    </contour>
  </outline>
</glyph>
<glyph name="parenleft" format="1">
  <advance width="169"/>
  <unicode hex="0028"/>
  <outline>
    <contour>
      <point x="153" y="798" type="line"/>
      <point x="132" y="783"/>
      <point x="98" y="755"/>
      <point x="73" y="719"/>
      <point x="60" y="670"/>
      <point x="60" y="635" type="qcurve" smooth="yes"/>
      <point x="60" y="475"/>
      <point x="60" y="254"/>
      <point x="60" y="109"/>
      <point x="60" y="65" type="qcurve" smooth="yes"/>
      <point x="60" y="22"/>
      <point x="81" y="-35"/>
      <point x="112" y="-71"/>
      <point x="143" y="-93"/>
      <point x="154" y="-101" type="qcurve"/>
      <point x="143" y="-119" type="line"/>
      <point x="116" y="-101"/>
      <point x="77" y="-65"/>
      <point x="52" y="-23"/>
      <point x="41" y="32"/>
      <point x="41" y="69" type="qcurve" smooth="yes"/>
      <point x="41" y="625" type="line" smooth="yes"/>
      <point x="41" y="674"/>
      <point x="62" y="740"/>
      <point x="107" y="790"/>
      <point x="143" y="813" type="qcurve"/>
    </contour>
  </outline>
</glyph>
<glyph name="parenright" format="1">
  <advance width="171"/>
  <unicode hex="0029"/>
  <outline>
    <contour>
      <point x="26" y="813" type="line"/>
      <point x="63" y="790"/>
      <point x="108" y="740"/>
      <point x="129" y="674"/>
      <point x="129" y="625" type="qcurve" smooth="yes"/>
      <point x="129" y="69" type="line" smooth="yes"/>
      <point x="129" y="32"/>
      <point x="118" y="-23"/>
      <point x="93" y="-65"/>
      <point x="54" y="-101"/>
      <point x="26" y="-119" type="qcurve"/>
      <point x="15" y="-101" type="line"/>
      <point x="26" y="-93"/>
      <point x="58" y="-71"/>
      <point x="89" y="-35"/>
      <point x="110" y="22"/>
      <point x="110" y="65" type="qcurve" smooth="yes"/>
      <point x="110" y="109"/>
      <point x="110" y="254"/>
      <point x="110" y="475"/>
      <point x="110" y="635" type="qcurve" smooth="yes"/>
      <point x="110" y="670"/>
      <point x="96" y="719"/>
      <point x="72" y="755"/>
      <point x="37" y="783"/>
      <point x="16" y="798" type="qcurve"/>
    </contour>
  </outline>
</glyph>
<glyph name="hyphen" format="1">
  <advance width="390"/>
  <unicode hex="002D"/>
  <outline>
    <contour>
      <point x="33" y="393" type="line"/>
      <point x="33" y="413" type="line"/>
      <point x="352" y="413" type="line"/>
      <point x="352" y="393" type="line"/>
    </contour>
  </outline>
</glyph>
<glyph name="one" format="1">
  <advance width="204"/>
  <unicode hex="0031"/>
  <outline>
    <contour>
      <point x="8" y="606" type="line"/>
      <point x="34" y="613"/>
      <point x="85" y="641"/>
      <point x="129" y="678"/>
      <point x="141" y="698" type="qcurve"/>
      <point x="161" y="698" type="line"/>
      <point x="161" y="0" type="line"/>
      <point x="141" y="0" type="line"/>
      <point x="141" y="664" type="line"/>
      <point x="124" y="647"/>
      <point x="84" y="618"/>
      <point x="38" y="596"/>
      <point x="13" y="590" type="qcurve"/>
    </contour>
  </outline>
</glyph>
<glyph name="six" format="1">
  <advance width="480"/>
  <unicode hex="0036"/>
  <outline>
    <contour>
      <point x="270" y="679" type="line" smooth="yes"/>
      <point x="228" y="679"/>
      <point x="155" y="654"/>
      <point x="124" y="631" type="qcurve" smooth="yes"/>
      <point x="90" y="606"/>
      <point x="50" y="518"/>
      <point x="50" y="450" type="qcurve" smooth="yes"/>
      <point x="50" y="288" type="line"/>
      <point x="70" y="333"/>
      <point x="130" y="388"/>
      <point x="203" y="414"/>
      <point x="241" y="414" type="qcurve" smooth="yes"/>
      <point x="286" y="414"/>
      <point x="361" y="383"/>
      <point x="392" y="352" type="qcurve" smooth="yes"/>
      <point x="455" y="291"/>
      <point x="455" y="202" type="qcurve" smooth="yes"/>
      <point x="455" y="115"/>
      <point x="392" y="53" type="qcurve"/>
      <point x="331" y="-10"/>
      <point x="242" y="-10" type="qcurve" smooth="yes"/>
      <point x="155" y="-10"/>
      <point x="93" y="52" type="qcurve"/>
      <point x="30" y="112"/>
      <point x="30" y="202" type="qcurve" smooth="yes"/>
      <point x="30" y="462" type="line" smooth="yes"/>
      <point x="30" y="503"/>
      <point x="52" y="580"/>
      <point x="77" y="614" type="qcurve" smooth="yes"/>
      <point x="104" y="650"/>
      <point x="207" y="697"/>
      <point x="274" y="697" type="qcurve" smooth="yes"/>
      <point x="308" y="697" type="line"/>
      <point x="308" y="679" type="line"/>
    </contour>
    <contour>
      <point x="242" y="395" type="qcurve" smooth="yes"/>
      <point x="189" y="395"/>
      <point x="102" y="343"/>
      <point x="50" y="255"/>
      <point x="50" y="201" type="qcurve" smooth="yes"/>
      <point x="50" y="148"/>
      <point x="102" y="61"/>
      <point x="189" y="9"/>
      <point x="242" y="9" type="qcurve" smooth="yes"/>
      <point x="296" y="9"/>
      <point x="383" y="61"/>
      <point x="435" y="148"/>
      <point x="435" y="201" type="qcurve" smooth="yes"/>
      <point x="435" y="255"/>
      <point x="383" y="343"/>
      <point x="296" y="395"/>
    </contour>
  </outline>
</glyph>
<glyph name="seven" format="1">
  <advance width="428"/>
  <unicode hex="0037"/>
  <outline>
    <contour>
      <point x="56" y="0" type="line"/>
      <point x="36" y="0" type="line"/>
      <point x="393" y="678" type="line"/>
      <point x="25" y="678" type="line"/>
      <point x="25" y="698" type="line"/>
      <point x="416" y="698" type="line"/>
      <point x="416" y="678" type="line"/>
    </contour>
  </outline>
</glyph>
<glyph name="nine" format="1">
  <advance width="479"/>
  <unicode hex="0039"/>
  <outline>
    <contour>
      <point x="234" y="706" type="qcurve" smooth="yes"/>
      <point x="323" y="706"/>
      <point x="384" y="645" type="qcurve" smooth="yes"/>
      <point x="446" y="583"/>
      <point x="446" y="494" type="qcurve" smooth="yes"/>
      <point x="446" y="234" type="line" smooth="yes"/>
      <point x="446" y="194"/>
      <point x="421" y="117"/>
      <point x="395" y="82" type="qcurve" smooth="yes"/>
      <point x="369" y="45"/>
      <point x="269" y="-1"/>
      <point x="203" y="-1" type="qcurve" smooth="yes"/>
      <point x="168" y="-1" type="line"/>
      <point x="168" y="20" type="line"/>
      <point x="206" y="20" type="line" smooth="yes"/>
      <point x="248" y="20"/>
      <point x="322" y="42"/>
      <point x="353" y="65" type="qcurve" smooth="yes"/>
      <point x="387" y="90"/>
      <point x="427" y="183"/>
      <point x="427" y="246" type="qcurve" smooth="yes"/>
      <point x="427" y="408" type="line"/>
      <point x="407" y="364"/>
      <point x="346" y="308"/>
      <point x="274" y="283"/>
      <point x="235" y="283" type="qcurve" smooth="yes"/>
      <point x="190" y="283"/>
      <point x="115" y="314"/>
      <point x="84" y="344" type="qcurve" smooth="yes"/>
      <point x="22" y="406"/>
      <point x="22" y="494" type="qcurve" smooth="yes"/>
      <point x="22" y="583"/>
      <point x="84" y="643" type="qcurve"/>
      <point x="146" y="706"/>
    </contour>
    <contour>
      <point x="234" y="687" type="qcurve" smooth="yes"/>
      <point x="181" y="687"/>
      <point x="93" y="636"/>
      <point x="41" y="549"/>
      <point x="41" y="495" type="qcurve" smooth="yes"/>
      <point x="41" y="442"/>
      <point x="93" y="353"/>
      <point x="181" y="301"/>
      <point x="234" y="301" type="qcurve" smooth="yes"/>
      <point x="287" y="301"/>
      <point x="375" y="353"/>
      <point x="427" y="442"/>
      <point x="427" y="495" type="qcurve" smooth="yes"/>
      <point x="427" y="549"/>
      <point x="375" y="636"/>
      <point x="287" y="687"/>
    </contour>
  </outline>
</glyph>
<glyph name="at" format="1">
  <advance width="717"/>
  <unicode hex="0040"/>
  <outline>
    <contour>
      <point x="688" y="472" type="line"/>
      <point x="676" y="462"/>
      <point x="661" y="444"/>
      <point x="654" y="414"/>
      <point x="654" y="386" type="qcurve" smooth="yes"/>
      <point x="654" y="170" type="line" smooth="yes"/>
      <point x="654" y="115"/>
      <point x="600" y="27"/>
      <point x="509" y="-35"/>
      <point x="396" y="-67"/>
      <point x="336" y="-67" type="qcurve" smooth="yes"/>
      <point x="267" y="-67"/>
      <point x="155" y="-31"/>
      <point x="74" y="38"/>
      <point x="30" y="137"/>
      <point x="30" y="201" type="qcurve" smooth="yes"/>
      <point x="30" y="235"/>
      <point x="30" y="305"/>
      <point x="30" y="333" type="qcurve" smooth="yes"/>
      <point x="30" y="402"/>
      <point x="89" y="514"/>
      <point x="205" y="579"/>
      <point x="291" y="579" type="qcurve" smooth="yes"/>
      <point x="343" y="579"/>
      <point x="434" y="549"/>
      <point x="498" y="489"/>
      <point x="508" y="442" type="qcurve"/>
      <point x="577" y="442" type="line"/>
      <point x="567" y="424" type="line"/>
      <point x="511" y="424" type="line"/>
      <point x="511" y="417"/>
      <point x="511" y="361"/>
      <point x="511" y="280"/>
      <point x="511" y="193"/>
      <point x="511" y="117"/>
      <point x="511" y="69"/>
      <point x="511" y="69" type="qcurve"/>
      <point x="511" y="69"/>
      <point x="475" y="67"/>
      <point x="419" y="63"/>
      <point x="355" y="61"/>
      <point x="328" y="61" type="qcurve" smooth="yes"/>
      <point x="278" y="61"/>
      <point x="210" y="88"/>
      <point x="170" y="134"/>
      <point x="153" y="191"/>
      <point x="153" y="222" type="qcurve" smooth="yes"/>
      <point x="153" y="288" type="line" smooth="yes"/>
      <point x="153" y="348"/>
      <point x="197" y="415"/>
      <point x="267" y="442"/>
      <point x="306" y="442" type="qcurve" smooth="yes"/>
      <point x="311" y="442"/>
      <point x="351" y="442"/>
      <point x="405" y="442"/>
      <point x="457" y="442"/>
      <point x="492" y="442"/>
      <point x="492" y="442" type="qcurve"/>
      <point x="479" y="492"/>
      <point x="382" y="561"/>
      <point x="291" y="561" type="qcurve" smooth="yes"/>
      <point x="246" y="561"/>
      <point x="160" y="537"/>
      <point x="90" y="484"/>
      <point x="49" y="399"/>
      <point x="49" y="338" type="qcurve" smooth="yes"/>
      <point x="49" y="297"/>
      <point x="49" y="229"/>
      <point x="49" y="198" type="qcurve" smooth="yes"/>
      <point x="49" y="125"/>
      <point x="114" y="15"/>
      <point x="244" y="-48"/>
      <point x="341" y="-48" type="qcurve" smooth="yes"/>
      <point x="395" y="-48"/>
      <point x="500" y="-18"/>
      <point x="586" y="38"/>
      <point x="638" y="118"/>
      <point x="638" y="168" type="qcurve" smooth="yes"/>
      <point x="638" y="183"/>
      <point x="638" y="217"/>
      <point x="638" y="254"/>
      <point x="638" y="297"/>
      <point x="638" y="344"/>
      <point x="638" y="371" type="qcurve" smooth="yes"/>
      <point x="638" y="404"/>
      <point x="643" y="444"/>
      <point x="660" y="471"/>
      <point x="679" y="484" type="qcurve"/>
    </contour>
    <contour>
      <point x="301" y="424" type="qcurve"/>
      <point x="257" y="424"/>
      <point x="198" y="391"/>
      <point x="169" y="329"/>
      <point x="169" y="285" type="qcurve" smooth="yes"/>
      <point x="169" y="227" type="line" smooth="yes"/>
      <point x="169" y="154"/>
      <point x="248" y="79"/>
      <point x="327" y="79" type="qcurve" smooth="yes"/>
      <point x="353" y="79"/>
      <point x="412" y="81"/>
      <point x="463" y="85"/>
      <point x="495" y="87"/>
      <point x="495" y="87" type="qcurve"/>
      <point x="495" y="424" type="line"/>
      <point x="488" y="424"/>
      <point x="445" y="424"/>
      <point x="389" y="424"/>
      <point x="336" y="424"/>
    </contour>
  </outline>
</glyph>
<glyph name="A" format="1">
  <advance width="542"/>
  <unicode hex="0041"/>
    <anchor name="top" x="271" y="735"/>
    <anchor name="tonos" x="90" y="700"/>
    <anchor name="ogonek" x="270" y="0"/>
  <outline>
    <contour>
      <point x="524" y="0" type="line"/>
      <point x="503" y="0" type="line"/>
      <point x="405" y="280" type="line"/>
      <point x="138" y="280" type="line"/>
      <point x="40" y="0" type="line"/>
      <point x="20" y="0" type="line"/>
      <point x="265" y="698" type="line"/>
      <point x="279" y="698" type="line"/>
    </contour>
    <contour>
      <point x="146" y="299" type="line"/>
      <point x="399" y="299" type="line"/>
      <point x="272" y="658" type="line"/>
    </contour>
    <contour>
      <point x="271" y="735" type="move" name="top"/>
    </contour>
    <contour>
      <point x="90" y="700" type="move" name="tonos"/>
    </contour>
    <contour>
      <point x="270" y="0" type="move" name="ogonek"/>
    </contour>
  </outline>
</glyph>
<glyph name="B" format="1">
  <advance width="502"/>
  <unicode hex="0042"/>
  <outline>
    <contour>
      <point x="261" y="698" type="line" smooth="yes"/>
      <point x="343" y="698"/>
      <point x="437" y="617"/>
      <point x="437" y="538" type="qcurve" smooth="yes"/>
      <point x="437" y="495"/>
      <point x="388" y="417"/>
      <point x="349" y="403" type="qcurve"/>
      <point x="349" y="399" type="line"/>
      <point x="412" y="375"/>
      <point x="473" y="280"/>
      <point x="473" y="208" type="qcurve" smooth="yes"/>
      <point x="473" y="115"/>
      <point x="375" y="0"/>
      <point x="271" y="0" type="qcurve" smooth="yes"/>
      <point x="41" y="0" type="line"/>
      <point x="41" y="698" type="line"/>
    </contour>
    <contour>
      <point x="297" y="411" type="line" smooth="yes"/>
      <point x="332" y="411"/>
      <point x="386" y="445"/>
      <point x="418" y="504"/>
      <point x="418" y="541" type="qcurve" smooth="yes"/>
      <point x="418" y="603"/>
      <point x="339" y="679"/>
      <point x="253" y="679" type="qcurve" smooth="yes"/>
      <point x="60" y="679" type="line"/>
      <point x="60" y="411" type="line"/>
    </contour>
    <contour>
      <point x="269" y="19" type="line" smooth="yes"/>
      <point x="329" y="19"/>
      <point x="412" y="64"/>
      <point x="454" y="148"/>
      <point x="454" y="205" type="qcurve" smooth="yes"/>
      <point x="454" y="291"/>
      <point x="358" y="393"/>
      <point x="272" y="393" type="qcurve" smooth="yes"/>
      <point x="60" y="393" type="line"/>
      <point x="60" y="19" type="line"/>
    </contour>
  </outline>
</glyph>
<glyph name="L" format="1">
  <advance width="419"/>
  <unicode hex="004C"/>
    <anchor name="top" x="209" y="735"/>
    <anchor name="bottom" x="209" y="0"/>
  <outline>
    <contour>
      <point x="41" y="0" type="line"/>
      <point x="41" y="698" type="line"/>
      <point x="60" y="698" type="line"/>
      <point x="60" y="20" type="line"/>
      <point x="401" y="20" type="line"/>
      <point x="401" y="0" type="line"/>
    </contour>
    <contour>
      <point x="209" y="735" type="move" name="top"/>
    </contour>
    <contour>
      <point x="209" y="0" type="move" name="bottom"/>
    </contour>
  </outline>
</glyph>
<glyph name="N" format="1">
  <advance width="575"/>
  <unicode hex="004E"/>
    <anchor name="top" x="287" y="735"/>
    <anchor name="bottom" x="287" y="0"/>
  <outline>
    <contour>
      <point x="532" y="698" type="line"/>
      <point x="532" y="0" type="line"/>
      <point x="515" y="0" type="line"/>
      <point x="59" y="668" type="line"/>
      <point x="59" y="0" type="line"/>
      <point x="41" y="0" type="line"/>
      <point x="41" y="698" type="line"/>
      <point x="59" y="698" type="line"/>
      <point x="515" y="32" type="line"/>
      <point x="515" y="698" type="line"/>
    </contour>
    <contour>
      <point x="287" y="735" type="move" name="top"/>
    </contour>
    <contour>
      <point x="287" y="0" type="move" name="bottom"/>
    </contour>
  </outline>
</glyph>
<glyph name="R" format="1">
  <advance width="507"/>
  <unicode hex="0052"/>
    <anchor name="top" x="253" y="735"/>
    <anchor name="bottom" x="253" y="0"/>
  <outline>
    <contour>
      <point x="290" y="698" type="line" smooth="yes"/>
      <point x="337" y="698"/>
      <point x="407" y="670"/>
      <point x="452" y="617"/>
      <point x="474" y="540"/>
      <point x="474" y="492" type="qcurve" smooth="yes"/>
      <point x="474" y="404"/>
      <point x="409" y="299"/>
      <point x="338" y="285" type="qcurve"/>
      <point x="474" y="0" type="line"/>
      <point x="454" y="0" type="line"/>
      <point x="319" y="283" type="line"/>
      <point x="310" y="282"/>
      <point x="292" y="280"/>
      <point x="283" y="280" type="qcurve" smooth="yes"/>
      <point x="60" y="280" type="line"/>
      <point x="60" y="0" type="line"/>
      <point x="41" y="0" type="line"/>
      <point x="41" y="698" type="line"/>
    </contour>
    <contour>
      <point x="282" y="299" type="line" smooth="yes"/>
      <point x="343" y="299"/>
      <point x="419" y="343"/>
      <point x="455" y="430"/>
      <point x="455" y="492" type="qcurve" smooth="yes"/>
      <point x="455" y="551"/>
      <point x="421" y="634"/>
      <point x="349" y="678"/>
      <point x="291" y="678" type="qcurve" smooth="yes"/>
      <point x="60" y="678" type="line"/>
      <point x="60" y="299" type="line"/>
    </contour>
    <contour>
      <point x="253" y="735" type="move" name="top"/>
    </contour>
    <contour>
      <point x="253" y="0" type="move" name="bottom"/>
    </contour>
  </outline>
</glyph>
<glyph name="U" format="1">
  <advance width="496"/>
  <unicode hex="0055"/>
    <anchor name="top" x="248" y="735"/>
    <anchor name="ogonek" x="247" y="0"/>
  <outline>
    <contour>
      <point x="456" y="185" type="line" smooth="yes"/>
      <point x="456" y="84"/>
      <point x="394" y="36" type="qcurve" smooth="yes"/>
      <point x="334" y="-11"/>
      <point x="248" y="-11" type="qcurve" smooth="yes"/>
      <point x="161" y="-11"/>
      <point x="99" y="36" type="qcurve" smooth="yes"/>
      <point x="38" y="84"/>
      <point x="38" y="185" type="qcurve" smooth="yes"/>
      <point x="38" y="698" type="line"/>
      <point x="56" y="698" type="line"/>
      <point x="56" y="184" type="line" smooth="yes"/>
      <point x="56" y="96"/>
      <point x="112" y="52" type="qcurve" smooth="yes"/>
      <point x="168" y="8"/>
      <point x="248" y="8" type="qcurve" smooth="yes"/>
      <point x="287" y="8"/>
      <point x="355" y="29"/>
      <point x="382" y="50" type="qcurve" smooth="yes"/>
      <point x="410" y="71"/>
      <point x="437" y="138"/>
      <point x="437" y="184" type="qcurve" smooth="yes"/>
      <point x="437" y="698" type="line"/>
      <point x="456" y="698" type="line"/>
    </contour>
    <contour>
      <point x="248" y="735" type="move" name="top"/>
    </contour>
    <contour>
      <point x="247" y="0" type="move" name="ogonek"/>
    </contour>
  </outline>
</glyph>
<glyph name="grave" format="1">
  <advance width="266"/>
  <unicode hex="0060"/>
  <outline>
    <contour>
      <point x="91" y="727" type="qcurve"/>
      <point x="143" y="613" type="line"/>
      <point x="122" y="613" type="line"/>
      <point x="66" y="714" type="line" smooth="yes"/>
      <point x="63" y="720"/>
      <point x="64" y="733"/>
      <point x="70" y="737" type="qcurve"/>
      <point x="76" y="740"/>
      <point x="89" y="734"/>
    </contour>
  </outline>
</glyph>
<glyph name="c" format="1">
  <advance width="377"/>
  <unicode hex="0063"/>
    <anchor name="bottom" x="188" y="0"/>
    <anchor name="top" x="188" y="545"/>
  <outline>
    <contour>
      <point x="340" y="457" type="line"/>
      <point x="297" y="479"/>
      <point x="210" y="493"/>
      <point x="172" y="485" type="qcurve" smooth="yes"/>
      <point x="141" y="478"/>
      <point x="90" y="444"/>
      <point x="73" y="417" type="qcurve" smooth="yes"/>
      <point x="60" y="396"/>
      <point x="47" y="345"/>
      <point x="47" y="313" type="qcurve" smooth="yes"/>
      <point x="47" y="175" type="line" smooth="yes"/>
      <point x="47" y="118"/>
      <point x="88" y="39"/>
      <point x="141" y="21" type="qcurve" smooth="yes"/>
      <point x="174" y="10"/>
      <point x="246" y="8"/>
      <point x="307" y="16"/>
      <point x="345" y="25"/>
      <point x="345" y="25" type="qcurve"/>
      <point x="349" y="5" type="line"/>
      <point x="299" y="-8"/>
      <point x="185" y="-13"/>
      <point x="140" y="1" type="qcurve" smooth="yes"/>
      <point x="89" y="18"/>
      <point x="28" y="100"/>
      <point x="28" y="173" type="qcurve" smooth="yes"/>
      <point x="28" y="318" type="line"/>
      <point x="30" y="351"/>
      <point x="42" y="402"/>
      <point x="55" y="426" type="qcurve"/>
      <point x="75" y="459"/>
      <point x="131" y="497"/>
      <point x="165" y="504" type="qcurve" smooth="yes"/>
      <point x="209" y="513"/>
      <point x="304" y="497"/>
      <point x="347" y="476" type="qcurve"/>
    </contour>
    <contour>
      <point x="188" y="0" type="move" name="bottom"/>
    </contour>
    <contour>
      <point x="188" y="545" type="move" name="top"/>
    </contour>
  </outline>
</glyph>
<glyph name="e" format="1">
  <advance width="419"/>
  <unicode hex="0065"/>
    <anchor name="top" x="209" y="545"/>
    <anchor name="ogonek" x="208" y="0"/>
  <outline>
    <contour>
      <point x="49" y="132" type="line" smooth="yes"/>
      <point x="49" y="99"/>
      <point x="70" y="51"/>
      <point x="92" y="35" type="qcurve" smooth="yes"/>
      <point x="107" y="25"/>
      <point x="140" y="12"/>
      <point x="179" y="7"/>
      <point x="202" y="7" type="qcurve" smooth="yes"/>
      <point x="243" y="7"/>
      <point x="313" y="28"/>
      <point x="356" y="52" type="qcurve"/>
      <point x="364" y="35" type="line"/>
      <point x="327" y="12"/>
      <point x="246" y="-12"/>
      <point x="204" y="-12" type="qcurve" smooth="yes"/>
      <point x="178" y="-12"/>
      <point x="133" y="-5"/>
      <point x="96" y="9"/>
      <point x="82" y="19" type="qcurve" smooth="yes"/>
      <point x="57" y="36"/>
      <point x="30" y="93"/>
      <point x="30" y="133" type="qcurve" smooth="yes"/>
      <point x="30" y="338" type="line" smooth="yes"/>
      <point x="30" y="379"/>
      <point x="57" y="442"/>
      <point x="81" y="463" type="qcurve"/>
      <point x="129" y="508"/>
      <point x="214" y="508" type="qcurve" smooth="yes"/>
      <point x="283" y="508"/>
      <point x="329" y="476" type="qcurve" smooth="yes"/>
      <point x="390" y="432"/>
      <point x="390" y="341" type="qcurve" smooth="yes"/>
      <point x="390" y="246" type="line"/>
      <point x="49" y="229" type="line"/>
    </contour>
    <contour>
      <point x="370" y="342" type="qcurve" smooth="yes"/>
      <point x="370" y="387"/>
      <point x="340" y="445"/>
      <point x="317" y="461" type="qcurve" smooth="yes"/>
      <point x="294" y="478"/>
      <point x="238" y="491"/>
      <point x="210" y="491" type="qcurve" smooth="yes"/>
      <point x="182" y="491"/>
      <point x="119" y="475"/>
      <point x="94" y="452" type="qcurve" smooth="yes"/>
      <point x="74" y="434"/>
      <point x="49" y="376"/>
      <point x="49" y="332" type="qcurve" smooth="yes"/>
      <point x="49" y="316"/>
      <point x="49" y="263"/>
      <point x="49" y="248" type="qcurve"/>
      <point x="370" y="264" type="line"/>
      <point x="370" y="278"/>
      <point x="370" y="327"/>
    </contour>
    <contour>
      <point x="209" y="545" type="move" name="top"/>
    </contour>
    <contour>
      <point x="208" y="0" type="move" name="ogonek"/>
    </contour>
  </outline>
</glyph>
<glyph name="f" format="1">
  <advance width="246"/>
  <unicode hex="0066"/>
  <outline>
    <contour>
      <point x="219" y="687" type="line"/>
      <point x="212" y="689"/>
      <point x="200" y="691"/>
      <point x="193" y="691" type="qcurve"/>
      <point x="162" y="692"/>
      <point x="100" y="668"/>
      <point x="59" y="605"/>
      <point x="59" y="548" type="qcurve" smooth="yes"/>
      <point x="59" y="498" type="line"/>
      <point x="209" y="498" type="line"/>
      <point x="202" y="482" type="line"/>
      <point x="59" y="482" type="line"/>
      <point x="59" y="0" type="line"/>
      <point x="39" y="0" type="line"/>
      <point x="39" y="548" type="line" smooth="yes"/>
      <point x="39" y="609"/>
      <point x="84" y="679"/>
      <point x="152" y="708"/>
      <point x="187" y="708" type="qcurve" smooth="yes"/>
      <point x="196" y="708"/>
      <point x="215" y="707"/>
      <point x="223" y="705" type="qcurve"/>
    </contour>
  </outline>
</glyph>
<glyph name="g" format="1">
  <advance width="437"/>
  <unicode hex="0067"/>
    <anchor name="top" x="218" y="545"/>
  <outline>
    <contour>
      <point x="398" y="-64" type="line" smooth="yes"/>
      <point x="398" y="-124"/>
      <point x="347" y="-192"/>
      <point x="290" y="-210" type="qcurve"/>
      <point x="284" y="-193" type="line"/>
      <point x="300" y="-186"/>
      <point x="344" y="-164"/>
      <point x="378" y="-113"/>
      <point x="378" y="-63" type="qcurve" smooth="yes"/>
      <point x="378" y="80" type="line"/>
      <point x="367" y="51"/>
      <point x="306" y="10"/>
      <point x="234" y="-12"/>
      <point x="203" y="-12" type="qcurve" smooth="yes"/>
      <point x="120" y="-12"/>
      <point x="29" y="84"/>
      <point x="29" y="175" type="qcurve" smooth="yes"/>
      <point x="29" y="344" type="line" smooth="yes"/>
      <point x="29" y="424"/>
      <point x="122" y="512"/>
      <point x="204" y="508" type="qcurve" smooth="yes"/>
      <point x="228" y="507"/>
      <point x="290" y="494"/>
      <point x="353" y="469"/>
      <point x="378" y="451" type="qcurve"/>
      <point x="378" y="498" type="line"/>
      <point x="398" y="498" type="line"/>
    </contour>
    <contour>
      <point x="378" y="426" type="line"/>
      <point x="357" y="448"/>
      <point x="289" y="477"/>
      <point x="217" y="490"/>
      <point x="188" y="488" type="qcurve"/>
      <point x="152" y="487"/>
      <point x="89" y="460"/>
      <point x="49" y="398"/>
      <point x="49" y="346" type="qcurve" smooth="yes"/>
      <point x="49" y="168" type="line" smooth="yes"/>
      <point x="49" y="92"/>
      <point x="124" y="11"/>
      <point x="188" y="8" type="qcurve"/>
      <point x="232" y="5"/>
      <point x="320" y="35"/>
      <point x="378" y="99"/>
      <point x="378" y="147" type="qcurve" smooth="yes"/>
    </contour>
    <contour>
      <point x="218" y="545" type="move" name="top"/>
    </contour>
  </outline>
</glyph>
<glyph name="h" format="1">
  <advance width="442"/>
  <unicode hex="0068"/>
    <anchor name="top" x="221" y="735"/>
  <outline>
    <contour>
      <point x="61" y="471" type="line"/>
      <point x="85" y="482"/>
      <point x="167" y="506"/>
      <point x="206" y="508" type="qcurve" smooth="yes"/>
      <point x="239" y="510"/>
      <point x="310" y="503"/>
      <point x="371" y="471"/>
      <point x="410" y="404"/>
      <point x="410" y="345" type="qcurve" smooth="yes"/>
      <point x="410" y="0" type="line"/>
      <point x="391" y="0" type="line"/>
      <point x="391" y="346" type="line" smooth="yes"/>
      <point x="391" y="403"/>
      <point x="350" y="469"/>
      <point x="273" y="496"/>
      <point x="219" y="493" type="qcurve" smooth="yes"/>
      <point x="176" y="491"/>
      <point x="88" y="467"/>
      <point x="61" y="453" type="qcurve"/>
      <point x="61" y="0" type="line"/>
      <point x="41" y="0" type="line"/>
      <point x="41" y="698" type="line"/>
      <point x="61" y="698" type="line"/>
    </contour>
    <contour>
      <point x="221" y="735" type="move" name="top"/>
    </contour>
  </outline>
</glyph>
<glyph name="i" format="1">
  <advance width="116"/>
  <unicode hex="0069"/>
  <outline>
    <contour>
      <point x="47" y="0" type="line"/>
      <point x="47" y="499" type="line"/>
      <point x="66" y="499" type="line"/>
      <point x="66" y="0" type="line"/>
    </contour>
    <contour>
      <point x="57" y="708" type="qcurve" smooth="yes"/>
      <point x="64" y="708"/>
      <point x="74" y="699"/>
      <point x="74" y="691" type="qcurve" smooth="yes"/>
      <point x="74" y="684"/>
      <point x="64" y="674"/>
      <point x="57" y="674" type="qcurve" smooth="yes"/>
      <point x="50" y="674"/>
      <point x="40" y="684"/>
      <point x="40" y="691" type="qcurve" smooth="yes"/>
      <point x="40" y="699"/>
      <point x="50" y="708"/>
    </contour>
  </outline>
</glyph>
<glyph name="sterling" format="1">
  <advance width="424"/>
  <unicode hex="00A3"/>
  <outline>
    <contour>
      <point x="136" y="16" type="line" smooth="yes"/>
      <point x="164" y="16"/>
      <point x="222" y="30"/>
      <point x="270" y="66"/>
      <point x="284" y="97" type="qcurve" smooth="yes"/>
      <point x="299" y="131"/>
      <point x="295" y="204"/>
      <point x="259" y="280"/>
      <point x="226" y="316" type="qcurve" smooth="yes"/>
      <point x="216" y="328"/>
      <point x="188" y="359"/>
      <point x="174" y="375" type="qcurve"/>
      <point x="33" y="375" type="line"/>
      <point x="33" y="396" type="line"/>
      <point x="155" y="396" type="line"/>
      <point x="153" y="399"/>
      <point x="146" y="405"/>
      <point x="144" y="408" type="qcurve"/>
      <point x="113" y="444"/>
      <point x="69" y="515"/>
      <point x="58" y="588"/>
      <point x="77" y="627" type="qcurve" smooth="yes"/>
      <point x="89" y="653"/>
      <point x="126" y="686"/>
      <point x="172" y="703"/>
      <point x="196" y="705" type="qcurve"/>
      <point x="234" y="710"/>
      <point x="320" y="688"/>
      <point x="358" y="667" type="qcurve"/>
      <point x="352" y="650" type="line"/>
      <point x="320" y="669"/>
      <point x="244" y="691"/>
      <point x="203" y="689" type="qcurve" smooth="yes"/>
      <point x="172" y="687"/>
      <point x="107" y="652"/>
      <point x="92" y="617" type="qcurve" smooth="yes"/>
      <point x="75" y="575"/>
      <point x="100" y="487"/>
      <point x="160" y="420" type="qcurve"/>
      <point x="165" y="416"/>
      <point x="174" y="403"/>
      <point x="181" y="396" type="qcurve"/>
      <point x="391" y="396" type="line"/>
      <point x="391" y="375" type="line"/>
      <point x="200" y="375" type="line"/>
      <point x="211" y="363"/>
      <point x="231" y="340"/>
      <point x="241" y="329" type="qcurve" smooth="yes"/>
      <point x="293" y="271"/>
      <point x="330" y="147"/>
      <point x="301" y="86" type="qcurve" smooth="yes"/>
      <point x="289" y="60"/>
      <point x="248" y="26"/>
      <point x="224" y="16" type="qcurve"/>
      <point x="391" y="16" type="line"/>
      <point x="391" y="0" type="line"/>
      <point x="33" y="0" type="line"/>
      <point x="33" y="16" type="line"/>
    </contour>
  </outline>
</glyph>
<glyph name="ordfeminine" format="1">
  <advance width="325"/>
  <unicode hex="00AA"/>
  <outline>
    <contour>
      <point x="290" y="389" type="qcurve"/>
      <point x="255" y="385"/>
      <point x="206" y="380"/>
      <point x="190" y="378" type="qcurve"/>
      <point x="134" y="377"/>
      <point x="67" y="401"/>
      <point x="33" y="443"/>
      <point x="22" y="492"/>
      <point x="22" y="515" type="qcurve" smooth="yes"/>
      <point x="22" y="540"/>
      <point x="41" y="592"/>
      <point x="84" y="628"/>
      <point x="120" y="628" type="qcurve" smooth="yes"/>
      <point x="154" y="628"/>
      <point x="230" y="598"/>
      <point x="272" y="568" type="qcurve"/>
      <point x="272" y="599"/>
      <point x="257" y="644"/>
      <point x="242" y="658" type="qcurve" smooth="yes"/>
      <point x="224" y="675"/>
      <point x="165" y="690"/>
      <point x="123" y="691" type="qcurve"/>
      <point x="126" y="707" type="line"/>
      <point x="173" y="707"/>
      <point x="239" y="688"/>
      <point x="256" y="669" type="qcurve" smooth="yes"/>
      <point x="273" y="651"/>
      <point x="290" y="593"/>
      <point x="290" y="553" type="qcurve"/>
      <point x="290" y="553"/>
      <point x="290" y="520"/>
      <point x="290" y="472"/>
      <point x="290" y="423"/>
      <point x="290" y="390"/>
    </contour>
    <contour>
      <point x="271" y="547" type="line"/>
      <point x="228" y="579"/>
      <point x="153" y="612"/>
      <point x="121" y="612" type="qcurve" smooth="yes"/>
      <point x="89" y="612"/>
      <point x="54" y="577"/>
      <point x="41" y="531"/>
      <point x="41" y="512" type="qcurve" smooth="yes"/>
      <point x="41" y="479"/>
      <point x="59" y="431"/>
      <point x="87" y="414" type="qcurve" smooth="yes"/>
      <point x="102" y="405"/>
      <point x="144" y="396"/>
      <point x="195" y="396"/>
      <point x="247" y="401"/>
      <point x="271" y="404" type="qcurve"/>
    </contour>
  </outline>
</glyph>
<glyph name="degree" format="1">
  <advance width="347"/>
  <unicode hex="00B0"/>
  <outline>
    <contour>
      <point x="318" y="563" type="qcurve" smooth="yes"/>
      <point x="318" y="523"/>
      <point x="279" y="457"/>
      <point x="213" y="418"/>
      <point x="173" y="418" type="qcurve" smooth="yes"/>
      <point x="133" y="418"/>
      <point x="66" y="457"/>
      <point x="27" y="523"/>
      <point x="27" y="563" type="qcurve" smooth="yes"/>
      <point x="27" y="603"/>
      <point x="66" y="669"/>
      <point x="133" y="708"/>
      <point x="173" y="708" type="qcurve" smooth="yes"/>
      <point x="213" y="708"/>
      <point x="279" y="669"/>
      <point x="318" y="603"/>
    </contour>
    <contour>
      <point x="173" y="689" type="qcurve" smooth="yes"/>
      <point x="138" y="689"/>
      <point x="81" y="655"/>
      <point x="47" y="598"/>
      <point x="47" y="563" type="qcurve" smooth="yes"/>
      <point x="47" y="529"/>
      <point x="81" y="472"/>
      <point x="138" y="438"/>
      <point x="173" y="438" type="qcurve" smooth="yes"/>
      <point x="208" y="438"/>
      <point x="264" y="472"/>
      <point x="298" y="529"/>
      <point x="298" y="563" type="qcurve" smooth="yes"/>
      <point x="298" y="598"/>
      <point x="264" y="655"/>
      <point x="208" y="689"/>
    </contour>
  </outline>
</glyph>
<glyph name="AE" format="1">
  <advance width="742"/>
  <unicode hex="00C6"/>
  <outline>
    <contour>
      <point x="382" y="0" type="line"/>
      <point x="382" y="279" type="line"/>
      <point x="149" y="279" type="line"/>
      <point x="41" y="0" type="line"/>
      <point x="19" y="0" type="line"/>
      <point x="290" y="698" type="line"/>
      <point x="714" y="698" type="line"/>
      <point x="714" y="678" type="line"/>
      <point x="402" y="678" type="line"/>
      <point x="402" y="413" type="line"/>
      <point x="630" y="413" type="line"/>
      <point x="622" y="393" type="line"/>
      <point x="402" y="393" type="line"/>
      <point x="402" y="20" type="line"/>
      <point x="714" y="20" type="line"/>
      <point x="714" y="0" type="line"/>
    </contour>
    <contour>
      <point x="156" y="299" type="line"/>
      <point x="382" y="299" type="line"/>
      <point x="382" y="678" type="line"/>
      <point x="302" y="678" type="line"/>
    </contour>
  </outline>
</glyph>
<glyph name="multiply" format="1">
  <advance width="322"/>
  <unicode hex="00D7"/>
  <outline>
    <contour>
      <point x="161" y="343" type="line"/>
      <point x="276" y="483" type="line"/>
      <point x="290" y="470" type="line"/>
      <point x="174" y="330" type="line"/>
      <point x="288" y="193" type="line"/>
      <point x="271" y="179" type="line"/>
      <point x="160" y="315" type="line"/>
      <point x="47" y="179" type="line"/>
      <point x="33" y="190" type="line"/>
      <point x="148" y="329" type="line"/>
      <point x="31" y="472" type="line"/>
      <point x="44" y="484" type="line"/>
    </contour>
  </outline>
</glyph>
<glyph name="Thorn" format="1">
  <advance width="397"/>
  <unicode hex="00DE"/>
  <outline>
    <contour>
      <point x="368" y="289" type="line" smooth="yes"/>
      <point x="368" y="216"/>
      <point x="307" y="135"/>
      <point x="257" y="118" type="qcurve"/>
      <point x="215" y="105"/>
      <point x="108" y="106"/>
      <point x="60" y="119" type="qcurve"/>
      <point x="60" y="0" type="line"/>
      <point x="41" y="0" type="line"/>
      <point x="41" y="698" type="line"/>
      <point x="60" y="698" type="line"/>
      <point x="60" y="597" type="line"/>
      <point x="101" y="615"/>
      <point x="191" y="628"/>
      <point x="231" y="620" type="qcurve" smooth="yes"/>
      <point x="264" y="613"/>
      <point x="321" y="575"/>
      <point x="340" y="542" type="qcurve" smooth="yes"/>
      <point x="354" y="518"/>
      <point x="366" y="468"/>
      <point x="368" y="435" type="qcurve"/>
    </contour>
    <contour>
      <point x="224" y="602" type="qcurve" smooth="yes"/>
      <point x="199" y="607"/>
      <point x="145" y="604"/>
      <point x="88" y="589"/>
      <point x="60" y="574" type="qcurve"/>
      <point x="60" y="137" type="line"/>
      <point x="69" y="135"/>
      <point x="111" y="127"/>
      <point x="165" y="123"/>
      <point x="226" y="128"/>
      <point x="254" y="137" type="qcurve" smooth="yes"/>
      <point x="308" y="155"/>
      <point x="349" y="234"/>
      <point x="349" y="291" type="qcurve" smooth="yes"/>
      <point x="349" y="429" type="line" smooth="yes"/>
      <point x="349" y="461"/>
      <point x="336" y="513"/>
      <point x="324" y="532" type="qcurve" smooth="yes"/>
      <point x="307" y="561"/>
      <point x="255" y="595"/>
    </contour>
  </outline>
</glyph>
<glyph name="ae" format="1">
  <advance width="784"/>
  <unicode hex="00E6"/>
  <outline>
    <contour>
      <point x="414" y="132" type="line" smooth="yes"/>
      <point x="414" y="98"/>
      <point x="437" y="50"/>
      <point x="478" y="21"/>
      <point x="534" y="7"/>
      <point x="567" y="7" type="qcurve" smooth="yes"/>
      <point x="608" y="7"/>
      <point x="678" y="28"/>
      <point x="721" y="52" type="qcurve"/>
      <point x="730" y="35" type="line"/>
      <point x="692" y="12"/>
      <point x="611" y="-12"/>
      <point x="569" y="-12" type="qcurve" smooth="yes"/>
      <point x="508" y="-12"/>
      <point x="427" y="26"/>
      <point x="409" y="64" type="qcurve"/>
      <point x="409" y="0" type="line"/>
      <point x="409" y="0"/>
      <point x="380" y="-2"/>
      <point x="335" y="-5"/>
      <point x="284" y="-8"/>
      <point x="241" y="-10"/>
      <point x="229" y="-10" type="qcurve" smooth="yes"/>
      <point x="157" y="-10"/>
      <point x="67" y="30"/>
      <point x="25" y="109"/>
      <point x="25" y="168" type="qcurve" smooth="yes"/>
      <point x="25" y="251" type="line" smooth="yes"/>
      <point x="25" y="275"/>
      <point x="38" y="328"/>
      <point x="72" y="374"/>
      <point x="136" y="403"/>
      <point x="186" y="403" type="qcurve" smooth="yes"/>
      <point x="241" y="403"/>
      <point x="345" y="367"/>
      <point x="390" y="345" type="qcurve"/>
      <point x="390" y="386"/>
      <point x="355" y="450"/>
      <point x="272" y="488"/>
      <point x="200" y="488" type="qcurve"/>
      <point x="200" y="493"/>
      <point x="201" y="503"/>
      <point x="201" y="507" type="qcurve"/>
      <point x="259" y="507"/>
      <point x="341" y="480"/>
      <point x="392" y="428"/>
      <point x="402" y="391" type="qcurve"/>
      <point x="417" y="447"/>
      <point x="512" y="508"/>
      <point x="579" y="508" type="qcurve" smooth="yes"/>
      <point x="634" y="508"/>
      <point x="713" y="469"/>
      <point x="755" y="395"/>
      <point x="755" y="341" type="qcurve" smooth="yes"/>
      <point x="755" y="246" type="line"/>
      <point x="414" y="229" type="line"/>
    </contour>
    <contour>
      <point x="390" y="322" type="line"/>
      <point x="355" y="340"/>
      <point x="288" y="368"/>
      <point x="222" y="383"/>
      <point x="185" y="383" type="qcurve" smooth="yes"/>
      <point x="134" y="383"/>
      <point x="71" y="347"/>
      <point x="43" y="286"/>
      <point x="43" y="249" type="qcurve" smooth="yes"/>
      <point x="43" y="162" type="line" smooth="yes"/>
      <point x="43" y="135"/>
      <point x="58" y="80"/>
      <point x="97" y="33"/>
      <point x="171" y="7"/>
      <point x="229" y="8" type="qcurve"/>
      <point x="246" y="8"/>
      <point x="300" y="11"/>
      <point x="354" y="15"/>
      <point x="390" y="18"/>
      <point x="390" y="18" type="qcurve"/>
    </contour>
    <contour>
      <point x="735" y="342" type="line" smooth="yes"/>
      <point x="735" y="387"/>
      <point x="706" y="445"/>
      <point x="658" y="478"/>
      <point x="603" y="491"/>
      <point x="576" y="491" type="qcurve" smooth="yes"/>
      <point x="551" y="491"/>
      <point x="494" y="478"/>
      <point x="445" y="443"/>
      <point x="414" y="381"/>
      <point x="414" y="332" type="qcurve" smooth="yes"/>
      <point x="414" y="248" type="line"/>
      <point x="735" y="264" type="line"/>
    </contour>
  </outline>
</glyph>
<glyph name="dotlessi" format="1">
  <advance width="95"/>
  <unicode hex="0131"/>
    <anchor name="top" x="47" y="735"/>
    <anchor name="tonos" x="15" y="700"/>
    <anchor name="ogonek" x="46" y="0"/>
  <outline>
    <contour>
      <point x="38" y="0" type="line"/>
      <point x="38" y="499" type="line"/>
      <point x="56" y="499" type="line"/>
      <point x="56" y="0" type="line"/>
    </contour>
    <contour>
      <point x="47" y="735" type="move" name="top"/>
    </contour>
    <contour>
      <point x="15" y="700" type="move" name="tonos"/>
    </contour>
    <contour>
      <point x="46" y="0" type="move" name="ogonek"/>
    </contour>
  </outline>
</glyph>
<glyph name="IJ" format="1">
  <advance width="558"/>
  <unicode hex="0132"/>
  <outline>
    <contour>
      <point x="519" y="698" type="line"/>
      <point x="519" y="185" type="line" smooth="yes"/>
      <point x="519" y="84"/>
      <point x="457" y="36" type="qcurve" smooth="yes"/>
      <point x="397" y="-11"/>
      <point x="311" y="-11" type="qcurve" smooth="yes"/>
      <point x="268" y="-11"/>
      <point x="194" y="12"/>
      <point x="162" y="36" type="qcurve" smooth="yes"/>
      <point x="131" y="60"/>
      <point x="101" y="135"/>
      <point x="101" y="185" type="qcurve" smooth="yes"/>
      <point x="101" y="234" type="line"/>
      <point x="119" y="234" type="line"/>
      <point x="119" y="184" type="line" smooth="yes"/>
      <point x="119" y="140"/>
      <point x="145" y="72"/>
      <point x="173" y="50" type="qcurve" smooth="yes"/>
      <point x="201" y="28"/>
      <point x="271" y="8"/>
      <point x="311" y="8" type="qcurve" smooth="yes"/>
      <point x="350" y="8"/>
      <point x="418" y="29"/>
      <point x="445" y="50" type="qcurve" smooth="yes"/>
      <point x="473" y="71"/>
      <point x="500" y="138"/>
      <point x="500" y="184" type="qcurve" smooth="yes"/>
      <point x="500" y="677" type="line"/>
      <point x="415" y="679" type="line"/>
      <point x="415" y="698" type="line"/>
    </contour>
    <contour>
      <point x="119" y="698" type="line"/>
      <point x="119" y="262" type="line"/>
      <point x="101" y="262" type="line"/>
      <point x="101" y="676" type="line"/>
      <point x="15" y="679" type="line"/>
      <point x="15" y="698" type="line"/>
    </contour>
  </outline>
</glyph>
<glyph name="Eng" format="1">
  <advance width="576"/>
  <unicode hex="014A"/>
  <outline>
    <contour>
      <point x="533" y="-67" type="line" smooth="yes"/>
      <point x="533" y="-102"/>
      <point x="516" y="-155"/>
      <point x="496" y="-174" type="qcurve" smooth="yes"/>
      <point x="484" y="-186"/>
      <point x="449" y="-204"/>
      <point x="426" y="-212" type="qcurve"/>
      <point x="421" y="-195" type="line"/>
      <point x="444" y="-186"/>
      <point x="467" y="-173"/>
      <point x="483" y="-160" type="qcurve" smooth="yes"/>
      <point x="499" y="-146"/>
      <point x="516" y="-100"/>
      <point x="516" y="-66" type="qcurve" smooth="yes"/>
      <point x="516" y="1" type="line"/>
      <point x="61" y="668" type="line"/>
      <point x="61" y="0" type="line"/>
      <point x="41" y="0" type="line"/>
      <point x="41" y="698" type="line"/>
      <point x="60" y="698" type="line"/>
      <point x="516" y="33" type="line"/>
      <point x="516" y="698" type="line"/>
      <point x="533" y="698" type="line"/>
    </contour>
  </outline>
</glyph>
<glyph name="OE" format="1">
  <advance width="794"/>
  <unicode hex="0152"/>
  <outline>
    <contour>
      <point x="433" y="0" type="line"/>
      <point x="433" y="95" type="line"/>
      <point x="417" y="62"/>
      <point x="362" y="14"/>
      <point x="288" y="-11"/>
      <point x="243" y="-11" type="qcurve" smooth="yes"/>
      <point x="185" y="-11"/>
      <point x="89" y="33"/>
      <point x="33" y="121"/>
      <point x="33" y="185" type="qcurve" smooth="yes"/>
      <point x="33" y="506" type="line" smooth="yes"/>
      <point x="33" y="608"/>
      <point x="146" y="714"/>
      <point x="245" y="714" type="qcurve" smooth="yes"/>
      <point x="314" y="714"/>
      <point x="410" y="656"/>
      <point x="433" y="604" type="qcurve"/>
      <point x="433" y="698" type="line"/>
      <point x="766" y="698" type="line"/>
      <point x="766" y="679" type="line"/>
      <point x="451" y="679" type="line"/>
      <point x="451" y="411" type="line"/>
      <point x="679" y="411" type="line"/>
      <point x="672" y="393" type="line"/>
      <point x="451" y="393" type="line"/>
      <point x="451" y="19" type="line"/>
      <point x="764" y="19" type="line"/>
      <point x="764" y="0" type="line"/>
    </contour>
    <contour>
      <point x="52" y="184" type="line" smooth="yes"/>
      <point x="52" y="131"/>
      <point x="103" y="51"/>
      <point x="190" y="8"/>
      <point x="243" y="8" type="qcurve" smooth="yes"/>
      <point x="297" y="8"/>
      <point x="383" y="47"/>
      <point x="433" y="125"/>
      <point x="433" y="184" type="qcurve" smooth="yes"/>
      <point x="433" y="517" type="line"/>
      <point x="430" y="600"/>
      <point x="334" y="693"/>
      <point x="242" y="693" type="qcurve" smooth="yes"/>
      <point x="148" y="693"/>
      <point x="52" y="592"/>
      <point x="52" y="506" type="qcurve" smooth="yes"/>
    </contour>
  </outline>
</glyph>
<glyph name="oe" format="1">
  <advance width="772"/>
  <unicode hex="0153"/>
  <outline>
    <contour>
      <point x="402" y="132" type="line" smooth="yes"/>
      <point x="402" y="99"/>
      <point x="423" y="51"/>
      <point x="445" y="35" type="qcurve" smooth="yes"/>
      <point x="468" y="19"/>
      <point x="521" y="7"/>
      <point x="555" y="7" type="qcurve" smooth="yes"/>
      <point x="596" y="7"/>
      <point x="666" y="28"/>
      <point x="709" y="52" type="qcurve"/>
      <point x="718" y="35" type="line"/>
      <point x="680" y="12"/>
      <point x="599" y="-12"/>
      <point x="557" y="-12" type="qcurve" smooth="yes"/>
      <point x="531" y="-12"/>
      <point x="486" y="-5"/>
      <point x="450" y="9"/>
      <point x="435" y="19" type="qcurve" smooth="yes"/>
      <point x="414" y="33"/>
      <point x="389" y="76"/>
      <point x="384" y="105" type="qcurve"/>
      <point x="368" y="53"/>
      <point x="282" y="-10"/>
      <point x="214" y="-10" type="qcurve" smooth="yes"/>
      <point x="150" y="-10"/>
      <point x="67" y="42"/>
      <point x="27" y="131"/>
      <point x="27" y="184" type="qcurve" smooth="yes"/>
      <point x="27" y="315" type="line" smooth="yes"/>
      <point x="27" y="410"/>
      <point x="125" y="510"/>
      <point x="214" y="510" type="qcurve" smooth="yes"/>
      <point x="284" y="510"/>
      <point x="372" y="443"/>
      <point x="388" y="384" type="qcurve"/>
      <point x="393" y="408"/>
      <point x="418" y="448"/>
      <point x="434" y="463" type="qcurve" smooth="yes"/>
      <point x="482" y="508"/>
      <point x="567" y="508" type="qcurve" smooth="yes"/>
      <point x="638" y="508"/>
      <point x="682" y="476" type="qcurve" smooth="yes"/>
      <point x="711" y="455"/>
      <point x="743" y="387"/>
      <point x="743" y="341" type="qcurve" smooth="yes"/>
      <point x="743" y="246" type="line"/>
      <point x="402" y="229" type="line"/>
    </contour>
    <contour>
      <point x="377" y="319" type="line" smooth="yes"/>
      <point x="377" y="405"/>
      <point x="285" y="492"/>
      <point x="214" y="492" type="qcurve" smooth="yes"/>
      <point x="142" y="492"/>
      <point x="47" y="411"/>
      <point x="47" y="319" type="qcurve" smooth="yes"/>
      <point x="47" y="184" type="line" smooth="yes"/>
      <point x="47" y="135"/>
      <point x="84" y="55"/>
      <point x="159" y="8"/>
      <point x="214" y="8" type="qcurve" smooth="yes"/>
      <point x="271" y="8"/>
      <point x="343" y="54"/>
      <point x="377" y="134"/>
      <point x="377" y="184" type="qcurve" smooth="yes"/>
    </contour>
    <contour>
      <point x="723" y="342" type="line" smooth="yes"/>
      <point x="723" y="387"/>
      <point x="693" y="445"/>
      <point x="670" y="461" type="qcurve" smooth="yes"/>
      <point x="647" y="478"/>
      <point x="591" y="491"/>
      <point x="564" y="491" type="qcurve" smooth="yes"/>
      <point x="536" y="491"/>
      <point x="472" y="475"/>
      <point x="447" y="452" type="qcurve" smooth="yes"/>
      <point x="428" y="434"/>
      <point x="402" y="376"/>
      <point x="402" y="332" type="qcurve" smooth="yes"/>
      <point x="402" y="248" type="line"/>
      <point x="723" y="264" type="line"/>
    </contour>
  </outline>
</glyph>
<glyph name="tbar" format="1">
  <advance width="284"/>
  <unicode hex="0167"/>
  <outline>
    <contour>
      <point x="254" y="339" type="line"/>
      <point x="24" y="339" type="line"/>
      <point x="24" y="355" type="line"/>
      <point x="254" y="355" type="line"/>
    </contour>
    <contour>
      <point x="99" y="132" type="line" smooth="yes"/>
      <point x="99" y="77"/>
      <point x="141" y="21"/>
      <point x="191" y="4" type="qcurve"/>
      <point x="184" y="-13" type="line"/>
      <point x="129" y="3"/>
      <point x="79" y="73"/>
      <point x="79" y="132" type="qcurve" smooth="yes"/>
      <point x="79" y="698" type="line"/>
      <point x="99" y="698" type="line"/>
      <point x="99" y="499" type="line"/>
      <point x="255" y="499" type="line"/>
      <point x="246" y="481" type="line"/>
      <point x="99" y="481" type="line"/>
    </contour>
  </outline>
</glyph>
<glyph name="caron" format="1">
  <advance width="266"/>
  <unicode hex="02C7"/>
  <outline>
    <contour>
      <point x="254" y="706" type="line"/>
      <point x="132" y="587" type="line"/>
      <point x="12" y="705" type="line"/>
      <point x="27" y="721" type="line"/>
      <point x="132" y="617" type="line"/>
      <point x="240" y="721" type="line"/>
    </contour>
  </outline>
</glyph>
<glyph name="breve" format="1">
  <advance width="266"/>
  <unicode hex="02D8"/>
  <outline>
    <contour>
      <point x="245" y="702" type="line"/>
      <point x="245" y="695" type="line" smooth="yes"/>
      <point x="245" y="664"/>
      <point x="215" y="612"/>
      <point x="164" y="582"/>
      <point x="133" y="582" type="qcurve" smooth="yes"/>
      <point x="102" y="582"/>
      <point x="51" y="612"/>
      <point x="20" y="664"/>
      <point x="20" y="695" type="qcurve" smooth="yes"/>
      <point x="20" y="702" type="line"/>
      <point x="42" y="702" type="line"/>
      <point x="42" y="695" type="line" smooth="yes"/>
      <point x="42" y="658"/>
      <point x="96" y="604"/>
      <point x="133" y="604" type="qcurve" smooth="yes"/>
      <point x="171" y="604"/>
      <point x="225" y="658"/>
      <point x="225" y="695" type="qcurve" smooth="yes"/>
      <point x="225" y="702" type="line"/>
    </contour>
  </outline>
</glyph>
<glyph name="ring" format="1">
  <advance width="266"/>
  <unicode hex="02DA"/>
  <outline>
    <contour>
      <point x="133" y="773" type="qcurve" smooth="yes"/>
      <point x="164" y="773"/>
      <point x="215" y="743"/>
      <point x="246" y="692"/>
      <point x="246" y="660" type="qcurve" smooth="yes"/>
      <point x="246" y="628"/>
      <point x="215" y="576"/>
      <point x="164" y="546"/>
      <point x="133" y="546" type="qcurve" smooth="yes"/>
      <point x="102" y="546"/>
      <point x="50" y="576"/>
      <point x="19" y="628"/>
      <point x="19" y="660" type="qcurve" smooth="yes"/>
      <point x="19" y="692"/>
      <point x="50" y="743"/>
      <point x="102" y="773"/>
    </contour>
    <contour>
      <point x="133" y="754" type="qcurve" smooth="yes"/>
      <point x="94" y="754"/>
      <point x="38" y="699"/>
      <point x="38" y="660" type="qcurve" smooth="yes"/>
      <point x="38" y="620"/>
      <point x="94" y="565"/>
      <point x="133" y="565" type="qcurve" smooth="yes"/>
      <point x="171" y="565"/>
      <point x="227" y="620"/>
      <point x="227" y="660" type="qcurve" smooth="yes"/>
      <point x="227" y="699"/>
      <point x="171" y="754"/>
    </contour>
  </outline>
</glyph>
<glyph name="dieresistonos" format="1">
  <advance width="266"/>
  <unicode hex="0385"/>
  <outline>
    <contour>
      <point x="71" y="690" type="qcurve" smooth="yes"/>
      <point x="71" y="683"/>
      <point x="61" y="673"/>
      <point x="54" y="673" type="qcurve" smooth="yes"/>
      <point x="47" y="673"/>
      <point x="36" y="683"/>
      <point x="36" y="690" type="qcurve" smooth="yes"/>
      <point x="36" y="698"/>
      <point x="47" y="706"/>
      <point x="54" y="706" type="qcurve" smooth="yes"/>
      <point x="61" y="706"/>
      <point x="71" y="698"/>
    </contour>
    <contour>
      <point x="229" y="690" type="qcurve" smooth="yes"/>
      <point x="229" y="683"/>
      <point x="219" y="673"/>
      <point x="211" y="673" type="qcurve" smooth="yes"/>
      <point x="204" y="673"/>
      <point x="195" y="683"/>
      <point x="195" y="690" type="qcurve" smooth="yes"/>
      <point x="195" y="698"/>
      <point x="204" y="706"/>
      <point x="211" y="706" type="qcurve" smooth="yes"/>
      <point x="219" y="706"/>
      <point x="229" y="698"/>
    </contour>
    <contour>
      <point x="194" y="824" type="qcurve" smooth="yes"/>
      <point x="139" y="724" type="line"/>
      <point x="117" y="724" type="line"/>
      <point x="168" y="837" type="line" smooth="yes"/>
      <point x="171" y="844"/>
      <point x="184" y="850"/>
      <point x="190" y="847" type="qcurve" smooth="yes"/>
      <point x="196" y="844"/>
      <point x="197" y="830"/>
    </contour>
  </outline>
</glyph>
<glyph name="Phi" format="1">
  <advance width="591"/>
  <unicode hex="03A6"/>
  <outline>
    <contour>
      <point x="156" y="689" type="line"/>
      <point x="121" y="678"/>
      <point x="75" y="632"/>
      <point x="52" y="562"/>
      <point x="52" y="516" type="qcurve" smooth="yes"/>
      <point x="52" y="215" type="line" smooth="yes"/>
      <point x="52" y="159"/>
      <point x="92" y="84"/>
      <point x="167" y="46"/>
      <point x="220" y="46" type="qcurve" smooth="yes"/>
      <point x="285" y="46" type="line"/>
      <point x="285" y="603" type="line" smooth="yes"/>
      <point x="285" y="628"/>
      <point x="298" y="667"/>
      <point x="323" y="693"/>
      <point x="359" y="707"/>
      <point x="382" y="708" type="qcurve" smooth="yes"/>
      <point x="436" y="712"/>
      <point x="514" y="659"/>
      <point x="557" y="566"/>
      <point x="557" y="509" type="qcurve" smooth="yes"/>
      <point x="557" y="224" type="line" smooth="yes"/>
      <point x="557" y="164"/>
      <point x="517" y="77"/>
      <point x="434" y="30"/>
      <point x="370" y="30" type="qcurve" smooth="yes"/>
      <point x="302" y="30" type="line"/>
      <point x="302" y="-35" type="line"/>
      <point x="285" y="-33" type="line"/>
      <point x="285" y="30" type="line"/>
      <point x="220" y="30" type="line" smooth="yes"/>
      <point x="157" y="30"/>
      <point x="73" y="77"/>
      <point x="32" y="164"/>
      <point x="32" y="224" type="qcurve" smooth="yes"/>
      <point x="32" y="516" type="line" smooth="yes"/>
      <point x="32" y="666"/>
      <point x="148" y="704" type="qcurve"/>
    </contour>
    <contour>
      <point x="370" y="46" type="line" smooth="yes"/>
      <point x="436" y="46"/>
      <point x="509" y="99"/>
      <point x="537" y="180"/>
      <point x="537" y="223" type="qcurve" smooth="yes"/>
      <point x="537" y="510" type="line" smooth="yes"/>
      <point x="537" y="563"/>
      <point x="499" y="647"/>
      <point x="430" y="694"/>
      <point x="381" y="692" type="qcurve" smooth="yes"/>
      <point x="355" y="691"/>
      <point x="319" y="670"/>
      <point x="302" y="633"/>
      <point x="302" y="605" type="qcurve" smooth="yes"/>
      <point x="302" y="46" type="line"/>
    </contour>
  </outline>
</glyph>
<glyph name="Psi" format="1">
  <advance width="589"/>
  <unicode hex="03A8"/>
  <outline>
    <contour>
      <point x="51" y="405" type="line" smooth="yes"/>
      <point x="51" y="314"/>
      <point x="142" y="229"/>
      <point x="219" y="229" type="qcurve" smooth="yes"/>
      <point x="280" y="229" type="line"/>
      <point x="280" y="698" type="line"/>
      <point x="300" y="698" type="line"/>
      <point x="300" y="229" type="line"/>
      <point x="370" y="229" type="line" smooth="yes"/>
      <point x="453" y="229"/>
      <point x="539" y="321"/>
      <point x="539" y="405" type="qcurve" smooth="yes"/>
      <point x="539" y="597" type="line" smooth="yes"/>
      <point x="539" y="632"/>
      <point x="521" y="672"/>
      <point x="495" y="693"/>
      <point x="484" y="700" type="qcurve"/>
      <point x="501" y="707" type="line"/>
      <point x="506" y="705"/>
      <point x="533" y="683"/>
      <point x="556" y="637"/>
      <point x="556" y="598" type="qcurve" smooth="yes"/>
      <point x="556" y="405" type="line" smooth="yes"/>
      <point x="556" y="314"/>
      <point x="465" y="212"/>
      <point x="370" y="212" type="qcurve" smooth="yes"/>
      <point x="300" y="212" type="line"/>
      <point x="300" y="0" type="line"/>
      <point x="280" y="0" type="line"/>
      <point x="280" y="212" type="line"/>
      <point x="219" y="212" type="line" smooth="yes"/>
      <point x="125" y="212"/>
      <point x="31" y="314"/>
      <point x="31" y="405" type="qcurve" smooth="yes"/>
      <point x="31" y="698" type="line"/>
      <point x="51" y="698" type="line"/>
    </contour>
  </outline>
</glyph>
<glyph name="delta" format="1">
  <advance width="429"/>
  <unicode hex="03B4"/>
  <outline>
    <contour>
      <point x="239" y="681" type="line" smooth="yes"/>
      <point x="218" y="681"/>
      <point x="175" y="667"/>
      <point x="146" y="634"/>
      <point x="144" y="605" type="qcurve" smooth="yes"/>
      <point x="142" y="578"/>
      <point x="164" y="542"/>
      <point x="200" y="517"/>
      <point x="218" y="506" type="qcurve"/>
      <point x="238" y="496"/>
      <point x="261" y="483"/>
      <point x="276" y="473"/>
      <point x="284" y="466" type="qcurve"/>
      <point x="299" y="457"/>
      <point x="328" y="435"/>
      <point x="344" y="421" type="qcurve" smooth="yes"/>
      <point x="372" y="396"/>
      <point x="399" y="328"/>
      <point x="399" y="285" type="qcurve" smooth="yes"/>
      <point x="399" y="183" type="line" smooth="yes"/>
      <point x="399" y="88"/>
      <point x="306" y="-11"/>
      <point x="214" y="-11" type="qcurve" smooth="yes"/>
      <point x="119" y="-11"/>
      <point x="27" y="93"/>
      <point x="27" y="183" type="qcurve" smooth="yes"/>
      <point x="27" y="310" type="line" smooth="yes"/>
      <point x="27" y="355"/>
      <point x="56" y="428"/>
      <point x="81" y="453" type="qcurve" smooth="yes"/>
      <point x="94" y="467"/>
      <point x="124" y="487"/>
      <point x="160" y="501"/>
      <point x="179" y="505" type="qcurve"/>
      <point x="167" y="514" type="line" smooth="yes"/>
      <point x="145" y="532"/>
      <point x="124" y="574"/>
      <point x="124" y="599" type="qcurve" smooth="yes"/>
      <point x="124" y="639"/>
      <point x="162" y="681"/>
      <point x="216" y="698"/>
      <point x="239" y="698" type="qcurve" smooth="yes"/>
      <point x="351" y="698" type="line"/>
      <point x="341" y="681" type="line"/>
    </contour>
    <contour>
      <point x="379" y="301" type="line" smooth="yes"/>
      <point x="379" y="330"/>
      <point x="356" y="380"/>
      <point x="310" y="427"/>
      <point x="275" y="449" type="qcurve"/>
      <point x="260" y="460"/>
      <point x="223" y="480"/>
      <point x="203" y="491" type="qcurve"/>
      <point x="182" y="489"/>
      <point x="141" y="477"/>
      <point x="105" y="455"/>
      <point x="90" y="438" type="qcurve" smooth="yes"/>
      <point x="66" y="413"/>
      <point x="43" y="347"/>
      <point x="43" y="309" type="qcurve" smooth="yes"/>
      <point x="43" y="183" type="line" smooth="yes"/>
      <point x="43" y="137"/>
      <point x="75" y="57"/>
      <point x="149" y="8"/>
      <point x="211" y="8" type="qcurve" smooth="yes"/>
      <point x="275" y="8"/>
      <point x="348" y="53"/>
      <point x="379" y="133"/>
      <point x="379" y="184" type="qcurve" smooth="yes"/>
    </contour>
  </outline>
</glyph>
<glyph name="zeta" format="1">
  <advance width="397"/>
  <unicode hex="03B6"/>
  <outline>
    <contour>
      <point x="372" y="678" type="line"/>
      <point x="338" y="652"/>
      <point x="277" y="597"/>
      <point x="224" y="542"/>
      <point x="201" y="514" type="qcurve" smooth="yes"/>
      <point x="172" y="480"/>
      <point x="124" y="411"/>
      <point x="106" y="378" type="qcurve" smooth="yes"/>
      <point x="78" y="324"/>
      <point x="47" y="224"/>
      <point x="47" y="180" type="qcurve" smooth="yes"/>
      <point x="47" y="143"/>
      <point x="69" y="83"/>
      <point x="92" y="62" type="qcurve" smooth="yes"/>
      <point x="116" y="39"/>
      <point x="190" y="15"/>
      <point x="291" y="20"/>
      <point x="354" y="38" type="qcurve"/>
      <point x="354" y="-209" type="line"/>
      <point x="334" y="-199" type="line"/>
      <point x="334" y="13" type="line"/>
      <point x="256" y="-6"/>
      <point x="117" y="11"/>
      <point x="75" y="50" type="qcurve" smooth="yes"/>
      <point x="48" y="76"/>
      <point x="24" y="144"/>
      <point x="25" y="184" type="qcurve" smooth="yes"/>
      <point x="27" y="228"/>
      <point x="59" y="329"/>
      <point x="88" y="382" type="qcurve" smooth="yes"/>
      <point x="108" y="417"/>
      <point x="157" y="486"/>
      <point x="185" y="520" type="qcurve" smooth="yes"/>
      <point x="210" y="549"/>
      <point x="261" y="603"/>
      <point x="312" y="655"/>
      <point x="336" y="678" type="qcurve"/>
      <point x="94" y="678" type="line"/>
      <point x="94" y="698" type="line"/>
      <point x="366" y="698" type="line"/>
    </contour>
  </outline>
</glyph>
<glyph name="rho" format="1">
  <advance width="435"/>
  <unicode hex="03C1"/>
  <outline>
    <contour>
      <point x="404" y="170" type="line" smooth="yes"/>
      <point x="404" y="78"/>
      <point x="312" y="-18"/>
      <point x="229" y="-18" type="qcurve" smooth="yes"/>
      <point x="199" y="-18"/>
      <point x="126" y="5"/>
      <point x="67" y="47"/>
      <point x="55" y="76" type="qcurve"/>
      <point x="55" y="-217" type="line"/>
      <point x="35" y="-211" type="line"/>
      <point x="35" y="310" type="line" smooth="yes"/>
      <point x="35" y="405"/>
      <point x="132" y="506"/>
      <point x="221" y="506" type="qcurve" smooth="yes"/>
      <point x="310" y="506"/>
      <point x="404" y="401"/>
      <point x="404" y="310" type="qcurve" smooth="yes"/>
    </contour>
    <contour>
      <point x="384" y="315" type="line" smooth="yes"/>
      <point x="384" y="401"/>
      <point x="293" y="486"/>
      <point x="221" y="486" type="qcurve" smooth="yes"/>
      <point x="150" y="486"/>
      <point x="55" y="407"/>
      <point x="55" y="315" type="qcurve" smooth="yes"/>
      <point x="55" y="142" type="line" smooth="yes"/>
      <point x="55" y="94"/>
      <point x="115" y="28"/>
      <point x="204" y="-4"/>
      <point x="248" y="-1" type="qcurve" smooth="yes"/>
      <point x="313" y="3"/>
      <point x="384" y="88"/>
      <point x="384" y="164" type="qcurve" smooth="yes"/>
    </contour>
  </outline>
</glyph>
<glyph name="sigma" format="1">
  <advance width="425"/>
  <unicode hex="03C3"/>
  <outline>
    <contour>
      <point x="421" y="529" type="line"/>
      <point x="417" y="522"/>
      <point x="387" y="501"/>
      <point x="346" y="484"/>
      <point x="324" y="482" type="qcurve"/>
      <point x="362" y="456"/>
      <point x="395" y="380"/>
      <point x="395" y="319" type="qcurve" smooth="yes"/>
      <point x="395" y="184" type="line" smooth="yes"/>
      <point x="395" y="99"/>
      <point x="306" y="-10"/>
      <point x="213" y="-10" type="qcurve" smooth="yes"/>
      <point x="150" y="-10"/>
      <point x="67" y="42"/>
      <point x="27" y="131"/>
      <point x="27" y="184" type="qcurve" smooth="yes"/>
      <point x="27" y="327" type="line" smooth="yes"/>
      <point x="27" y="394"/>
      <point x="80" y="474"/>
      <point x="164" y="510"/>
      <point x="208" y="510" type="qcurve" smooth="yes"/>
      <point x="244" y="510"/>
      <point x="318" y="498"/>
      <point x="334" y="502" type="qcurve"/>
      <point x="354" y="505"/>
      <point x="391" y="525"/>
      <point x="409" y="541" type="qcurve"/>
    </contour>
    <contour>
      <point x="376" y="319" type="line" smooth="yes"/>
      <point x="376" y="371"/>
      <point x="352" y="434"/>
      <point x="318" y="469"/>
      <point x="289" y="483"/>
      <point x="284" y="486" type="qcurve"/>
      <point x="268" y="490"/>
      <point x="227" y="494"/>
      <point x="207" y="493" type="qcurve" smooth="yes"/>
      <point x="163" y="492"/>
      <point x="90" y="456"/>
      <point x="47" y="381"/>
      <point x="47" y="323" type="qcurve" smooth="yes"/>
      <point x="47" y="184" type="line" smooth="yes"/>
      <point x="47" y="135"/>
      <point x="85" y="55"/>
      <point x="160" y="8"/>
      <point x="215" y="8" type="qcurve" smooth="yes"/>
      <point x="272" y="8"/>
      <point x="343" y="54"/>
      <point x="376" y="134"/>
      <point x="376" y="184" type="qcurve" smooth="yes"/>
    </contour>
  </outline>
</glyph>
<glyph name="tau" format="1">
  <advance width="342"/>
  <unicode hex="03C4"/>
  <outline>
    <contour>
      <point x="175" y="132" type="line" smooth="yes"/>
      <point x="175" y="105"/>
      <point x="181" y="54"/>
      <point x="212" y="14"/>
      <point x="249" y="4" type="qcurve"/>
      <point x="242" y="-13" type="line"/>
      <point x="190" y="3"/>
      <point x="155" y="68"/>
      <point x="155" y="132" type="qcurve" smooth="yes"/>
      <point x="155" y="479" type="line"/>
      <point x="16" y="479" type="line"/>
      <point x="16" y="498" type="line"/>
      <point x="318" y="498" type="line"/>
      <point x="318" y="479" type="line"/>
      <point x="175" y="479" type="line"/>
    </contour>
  </outline>
</glyph>
<glyph name="upsilon" format="1">
  <advance width="438"/>
  <unicode hex="03C5"/>
    <anchor name="tonos" x="219" y="545"/>
    <anchor name="top" x="219" y="545"/>
  <outline>
    <contour>
      <point x="403" y="184" type="line" smooth="yes"/>
      <point x="403" y="99"/>
      <point x="312" y="-10"/>
      <point x="220" y="-10" type="qcurve" smooth="yes"/>
      <point x="157" y="-10"/>
      <point x="74" y="42"/>
      <point x="33" y="131"/>
      <point x="33" y="184" type="qcurve" smooth="yes"/>
      <point x="33" y="499" type="line"/>
      <point x="53" y="499" type="line"/>
      <point x="53" y="184" type="line" smooth="yes"/>
      <point x="53" y="135"/>
      <point x="91" y="55"/>
      <point x="166" y="8"/>
      <point x="221" y="8" type="qcurve" smooth="yes"/>
      <point x="279" y="8"/>
      <point x="351" y="54"/>
      <point x="386" y="134"/>
      <point x="386" y="184" type="qcurve" smooth="yes"/>
      <point x="386" y="499" type="line"/>
      <point x="403" y="499" type="line"/>
    </contour>
    <contour>
      <point x="219" y="545" type="move" name="tonos"/>
    </contour>
    <contour>
      <point x="219" y="545" type="move" name="top"/>
    </contour>
  </outline>
</glyph>
<glyph name="chi" format="1">
  <advance width="451"/>
  <unicode hex="03C7"/>
  <outline>
    <contour>
      <point x="342" y="-107" type="line" smooth="yes"/>
      <point x="365" y="-153"/>
      <point x="413" y="-196"/>
      <point x="447" y="-198" type="qcurve"/>
      <point x="438" y="-211" type="line"/>
      <point x="398" y="-211"/>
      <point x="350" y="-159"/>
      <point x="324" y="-107" type="qcurve" smooth="yes"/>
      <point x="207" y="131" type="line"/>
      <point x="38" y="-196" type="line"/>
      <point x="21" y="-189" type="line"/>
      <point x="197" y="148" type="line"/>
      <point x="21" y="498" type="line"/>
      <point x="41" y="498" type="line"/>
      <point x="206" y="166" type="line"/>
      <point x="380" y="498" type="line"/>
      <point x="400" y="498" type="line"/>
      <point x="217" y="148" type="line"/>
    </contour>
  </outline>
</glyph>
<glyph name="psi" format="1">
  <advance width="590"/>
  <unicode hex="03C8"/>
  <outline>
    <contour>
      <point x="525" y="504" type="line"/>
      <point x="545" y="479"/>
      <point x="557" y="420"/>
      <point x="557" y="386" type="qcurve" smooth="yes"/>
      <point x="557" y="188" type="line" smooth="yes"/>
      <point x="557" y="98"/>
      <point x="464" y="-7"/>
      <point x="369" y="-7" type="qcurve" smooth="yes"/>
      <point x="305" y="-7" type="line"/>
      <point x="305" y="-211" type="line"/>
      <point x="288" y="-205" type="line"/>
      <point x="288" y="-7" type="line"/>
      <point x="218" y="-7" type="line" smooth="yes"/>
      <point x="124" y="-7"/>
      <point x="32" y="98"/>
      <point x="32" y="188" type="qcurve" smooth="yes"/>
      <point x="32" y="498" type="line"/>
      <point x="49" y="498" type="line"/>
      <point x="49" y="185" type="line" smooth="yes"/>
      <point x="49" y="103"/>
      <point x="134" y="10"/>
      <point x="218" y="10" type="qcurve" smooth="yes"/>
      <point x="288" y="10" type="line"/>
      <point x="288" y="498" type="line"/>
      <point x="305" y="498" type="line"/>
      <point x="305" y="10" type="line"/>
      <point x="369" y="10" type="line" smooth="yes"/>
      <point x="419" y="10"/>
      <point x="495" y="48"/>
      <point x="537" y="123"/>
      <point x="537" y="178" type="qcurve" smooth="yes"/>
      <point x="537" y="388" type="line" smooth="yes"/>
      <point x="537" y="433"/>
      <point x="525" y="478"/>
      <point x="505" y="498" type="qcurve"/>
    </contour>
  </outline>
</glyph>
<glyph name="quoteright" format="1">
  <advance width="102"/>
  <unicode hex="2019"/>
  <outline>
    <contour>
      <point x="26" y="591" type="line"/>
      <point x="40" y="605"/>
      <point x="50" y="635"/>
      <point x="51" y="646" type="qcurve"/>
      <point x="46" y="648"/>
      <point x="40" y="655"/>
      <point x="40" y="661" type="qcurve" smooth="yes"/>
      <point x="40" y="669"/>
      <point x="50" y="679"/>
      <point x="56" y="679" type="qcurve" smooth="yes"/>
      <point x="64" y="679"/>
      <point x="73" y="669"/>
      <point x="73" y="661" type="qcurve" smooth="yes"/>
      <point x="73" y="641"/>
      <point x="61" y="612"/>
      <point x="46" y="594"/>
      <point x="34" y="585"/>
      <point x="34" y="585" type="qcurve"/>
    </contour>
  </outline>
</glyph>
<glyph name="quotedblleft" format="1">
  <advance width="282"/>
  <unicode hex="201C"/>
  <outline>
    <contour>
      <point x="253" y="665" type="line"/>
      <point x="238" y="652"/>
      <point x="228" y="621"/>
      <point x="227" y="610" type="qcurve"/>
      <point x="233" y="609"/>
      <point x="239" y="601"/>
      <point x="239" y="595" type="qcurve" smooth="yes"/>
      <point x="239" y="588"/>
      <point x="229" y="579"/>
      <point x="222" y="579" type="qcurve" smooth="yes"/>
      <point x="215" y="579"/>
      <point x="206" y="588"/>
      <point x="206" y="595" type="qcurve" smooth="yes"/>
      <point x="206" y="615"/>
      <point x="217" y="644"/>
      <point x="233" y="663"/>
      <point x="244" y="672"/>
      <point x="244" y="672" type="qcurve"/>
    </contour>
    <contour>
      <point x="74" y="665" type="line"/>
      <point x="59" y="652"/>
      <point x="49" y="621"/>
      <point x="47" y="610" type="qcurve"/>
      <point x="52" y="609"/>
      <point x="60" y="601"/>
      <point x="60" y="595" type="qcurve" smooth="yes"/>
      <point x="60" y="588"/>
      <point x="50" y="579"/>
      <point x="42" y="579" type="qcurve" smooth="yes"/>
      <point x="35" y="579"/>
      <point x="27" y="588"/>
      <point x="27" y="595" type="qcurve" smooth="yes"/>
      <point x="27" y="615"/>
      <point x="38" y="644"/>
      <point x="54" y="663"/>
      <point x="65" y="672"/>
      <point x="65" y="672" type="qcurve"/>
    </contour>
  </outline>
</glyph>
<glyph name="guilsinglright" format="1">
  <advance width="262"/>
  <unicode hex="203A"/>
  <outline>
    <contour>
      <point x="204" y="266" type="line"/>
      <point x="31" y="440" type="line"/>
      <point x="47" y="453" type="line"/>
      <point x="233" y="266" type="line"/>
      <point x="47" y="79" type="line"/>
      <point x="32" y="96" type="line"/>
    </contour>
  </outline>
</glyph>
<glyph name="y_lower_alt" format="1">
  <advance width="503"/>
  <unicode hex="9998"/>
  <outline>
    <contour>
      <point x="150" y="-210" type="line"/>
      <point x="252" y="20" type="line"/>
      <point x="15" y="510" type="line"/>
      <point x="36" y="510" type="line"/>
      <point x="262" y="42" type="line"/>
      <point x="462" y="510" type="line"/>
      <point x="482" y="510" type="line"/>
      <point x="172" y="-210" type="line"/>
    </contour>
  </outline>
</glyph>
<glyph name="ffl" format="1">
  <advance width="576"/>
  <unicode hex="FB04"/>
  <outline>
    <contour>
      <point x="517" y="646" type="line"/>
      <point x="485" y="676"/>
      <point x="407" y="691"/>
      <point x="372" y="679" type="qcurve" smooth="yes"/>
      <point x="336" y="666"/>
      <point x="286" y="606"/>
      <point x="288" y="563" type="qcurve"/>
      <point x="288" y="498" type="line"/>
      <point x="439" y="498" type="line"/>
      <point x="432" y="482" type="line"/>
      <point x="288" y="482" type="line"/>
      <point x="288" y="0" type="line"/>
      <point x="268" y="0" type="line"/>
      <point x="268" y="559" type="line" smooth="yes"/>
      <point x="268" y="577"/>
      <point x="275" y="608"/>
      <point x="288" y="637"/>
      <point x="297" y="649" type="qcurve"/>
      <point x="273" y="668"/>
      <point x="218" y="686"/>
      <point x="189" y="687" type="qcurve" smooth="yes"/>
      <point x="155" y="688"/>
      <point x="95" y="657"/>
      <point x="59" y="598"/>
      <point x="59" y="557" type="qcurve" smooth="yes"/>
      <point x="59" y="498" type="line"/>
      <point x="209" y="498" type="line"/>
      <point x="201" y="482" type="line"/>
      <point x="59" y="482" type="line"/>
      <point x="59" y="0" type="line"/>
      <point x="39" y="0" type="line"/>
      <point x="39" y="559" type="line" smooth="yes"/>
      <point x="39" y="596"/>
      <point x="65" y="651"/>
      <point x="108" y="686"/>
      <point x="157" y="704"/>
      <point x="180" y="704" type="qcurve" smooth="yes"/>
      <point x="210" y="704"/>
      <point x="273" y="688"/>
      <point x="313" y="662" type="qcurve"/>
      <point x="330" y="679"/>
      <point x="383" y="703"/>
      <point x="416" y="703" type="qcurve" smooth="yes"/>
      <point x="449" y="703"/>
      <point x="507" y="678"/>
      <point x="534" y="654" type="qcurve"/>
      <point x="534" y="0" type="line"/>
      <point x="517" y="0" type="line"/>
    </contour>
  </outline>
</glyph>
